<?xml version="1.0" encoding="UTF-8"?>
<svg id="Layer_1" xmlns="http://www.w3.org/2000/svg" version="1.1" viewBox="0 0 543.11 108.58">
  <!-- Generator: Adobe Illustrator 29.4.0, SVG Export Plug-In . SVG Version: 2.1.0 Build 152)  -->
  <defs>
    <style>
      .st0 {
        fill: #fff;
      }
    </style>
  </defs>
  <g id="aegea_Logo_-_boxed">
    <path class="st0" d="M113.13,57.11c-.19.11-.38.24-.56.38-2.93,2.35-3.01,5.95-1.21,9.28,1.52,2.83,3.96,3.88,7.95,3,7.62-1.69,15.08-3.87,22.07-7.96.22-.13.5,0,.54.25.79,4.5,3.95,6.11,7.91,7.06,6.6,1.58,23.28-2.16,30.41-3.71,1.5-.33,2.26-.13,2.91,1.27,1.7,3.64,4.79,5.58,8.63,6,9.53,1.04,25.39-4.79,34.92-7.9,5.02-1.64,9.81-3.97,15.14-6.19.06-.02.12.04.09.1-.57,1.14-.95,1.82-1.25,2.53-1.77,4.12-.46,7.6,3.84,8.91,2.38.73,5.17,1.13,7.56.63,6.63-1.41,13.31-2.87,19.69-7.09.06-.04.14.02.12.09-1.36,3.38-2.38,6.18-3.64,8.87-.44.94-1.37,1.85-2.31,2.31-8.15,4.01-15.63,8.95-21.32,16.13-1.6,2.02-2.85,4.58-3.41,7.08-1.1,4.87,2.12,7.81,6.95,6.66,3.47-.83,6.89-1.91,10.32-2.89,4.29-1.22,7.78-3.7,10.71-7.01,4.89-5.52,8.51-11.71,9.92-19.02.37-1.94,1.21-3.03,3.14-3.63,5.79-1.81,11.51-3.83,17.29-5.67,5.05-1.61,10.14-3.1,15.37-4.69.41,1.05.72,1.89,1.06,2.72,1.99,4.86,5.36,7.99,10.79,8.35,1.98.13,4.04.27,5.97-.1,13.44-2.58,26.47-6.42,38.58-12.97,4.46-2.41,8.9-4.88,13.44-7.12,2.57-1.27,5.33-2.18,8.01-3.22.1-.04.28-.11.35-.14.02,0,.05,0,.06.02l.24.52s0,.05-.02.06c-.31.16-2.39,1.26-3.41,1.93-5.21,3.43-10.11,7.15-11.66,13.7-1.32,5.56,1.09,8.14,6.64,6.82,4.12-.98,8.31-1.98,12.16-3.65,4.51-1.96,8.69-4.66,13.06-7.07.04-.02.09,0,.11.04,1.1,2.67,2.84,5.29,5.98,6.72,7.02,3.2,14.42,5.21,22.06,4.01,11.4-1.8,22.85-3.73,33.95-6.77,10.46-2.87,20.42-7.51,30.76-10.89,9.15-2.98,18.27-6.39,28-6.67.75-.02,1.5-.02,2.26,0,2.31.05,3.24.41,3.3.21.08-.29-1.3-.59-3.32-.59-1.74,0-3.48-.02-5.22-.03-3.24,0-6.46.08-9.56.73-9.09,1.9-17.96,4.82-26.91,7.38-11.89,3.4-23.45,7.88-35.7,10.11-8.74,1.59-17.15,1.68-25.52-1.51-6.63-2.53-9.12-6.25-8.76-13.34.11-2.16.16-4.33.11-6.49-.04-1.73-.75-2.79-2.8-2.55-3.88.45-7.83.5-11.67,1.18-16,2.84-31.18,7.95-45.33,16.12-5.14,2.97-10.71,5.34-16.33,7.28-2.92,1.01-6.42.91-9.57.56-4.64-.52-7.75-4-8.41-8.71,0-.06.03-.12.08-.15,4.03-1.69,8.25-3.22,12.12-5.2,2.53-1.29,4.94-3.07,6.96-5.08,1.86-1.85,1.35-4.21-1.07-5.22-4.82-2.01-9.68-3.14-14.83-1.17-2.17.83-4.43,1.42-6.68,1.99-4.51,1.15-7.49,3.84-8.62,8.41-.44,1.77-.59,3.62-1.11,5.36-.23.76-.92,1.72-1.61,1.95-5.04,1.68-10.13,3.2-15.21,4.78-5.18,1.6-10.35,3.21-15.74,4.89-.13.04-.26-.09-.21-.22,1.72-4.89,3.45-9.44,4.89-14.08.88-2.84,1.44-5.81,1.88-8.76.25-1.7-.05-3.13-2.58-3.16-14.11-.16-27.28,3.85-40.09,9.12-9.75,4.01-19.26,8.61-28.88,12.95-3.99,1.8-8.12,2.96-12.56,2.68-5.01-.32-8.35-2.56-9.47-6.41-.02-.08.02-.16.09-.19,2.74-1.24,5.48-2.48,8.22-3.74,5.15-2.38,9.49-5.86,13.21-10.07,2.77-3.13,1.5-6.62-2.6-7.4-1.37-.26-2.84-.39-4.22-.21-7.46.98-14.62,3.04-21.31,6.55-4.44,2.33-6.54,6.25-6.99,11.11-.13,1.44-.04,2.89-.02,4.48,0,.23-.16.44-.38.49-6.34,1.57-12.64,2.9-19.12,1.77-6.5-1.14-7.91-2.94-7.91-9.61,0-3.16.23-6.32.41-9.48.15-2.77-.32-3.25-2.99-3.11-5.98.33-11.99.37-17.94.97-6.35.64-12.81,1.21-18.95,2.86-11.71,3.14-23.18,7.12-34.81,10.56-14.26,4.21-28.54,8.36-42.88,12.25-8.41,2.28-16.96,4.02-25.45,5.97-1.54.35-3.12.56-4.69.83-.24.03-.09.94.14.9,7.42-.92,13.39-.61,22.22-2.9,19.62-5.08,39.1-10.73,58.5-16.58,10.74-3.24,21.18-7.54,32.54-8.23,2.4-.15,4.82-.04,7.66-.02.14,0,.17.18.04.24l-14.55,8.48.03-.03h0ZM124.87,55.92c4.27-3.45,8.68-6.62,14.58-7.13.21-.02.37.2.29.39-2.42,5.87-5.4,11.02-11.07,14.13-1.51.83-2.99,1.75-4.47.14,0,0-3.54-4.13.68-7.53h0ZM199.55,45.49c2.05-1.09,3.92-.49,6.03,1.01.04.03.05.09.02.14-3.06,4.38-6.93,7.53-11.51,10.2-.05.03-.11,0-.11-.06-.49-4.82,1.74-9.25,5.57-11.28h0ZM254.41,98.75s-.07.03-.1.01c-.13-.07-.54-.28-.67-.36-.03-.02-.05-.05-.04-.08.2-1.55.13-3.22.72-4.62,2.18-5.16,6.45-8.5,10.79-11.74.09-.06.21.02.17.12-2.16,6.55-5.71,12.14-10.87,16.66h0ZM272.79,51.62c-4.97,6.74-7.81,8.51-12.08,12.57-1.9,1.81-5.36,1.42-7.29-.53-1.97-1.99-.77-4.04.49-5.6,4.27-5.29,9.04-9.87,16.65-9.24.85.07,2.68.03,3.59.1.17,0,.27.21.18.35-.38.63-1.07,1.71-1.54,2.35ZM328.75,48.16c.57-1.38,1.14-1.63,2.64-1.16.9.28,2.13.82,3.88,1.52.03,0,.04.05.03.08-1.85,2.94-4.66,4.34-7.95,5.92-.05.03-.11-.02-.11-.08.11-1.1,1.17-5.42,1.52-6.27h-.01ZM391.25,66.87c-2.84-5.24,7.17-16.57,15.96-18.02.03,0,.06.03.05.06-2.8,8.42-8.52,13.94-15.92,17.98-.03.02-.07,0-.09-.03h0Z"/>
    <polygon class="st0" points="369.28 86.26 279.79 86.26 280.77 84.26 367.28 84.26 367.28 65.36 369.28 64.36 369.28 86.26"/>
    <polygon class="st0" points="176.44 57.88 174.44 58.46 174.44 22.54 369.28 22.54 369.28 51.8 367.28 52.8 367.28 24.54 176.44 24.54 176.44 57.88"/>
    <polygon class="st0" points="243.77 86.26 174.44 86.26 174.44 70.69 176.44 70.09 176.44 84.26 245.77 84.26 243.77 86.26"/>
  </g>
</svg>